<?xml version="1.0" encoding="UTF-8" standalone="no"?>
<!DOCTYPE svg PUBLIC "-//W3C//DTD SVG 1.1//EN" "http://www.w3.org/Graphics/SVG/1.1/DTD/svg11.dtd">
<svg xmlns="http://www.w3.org/2000/svg" version="1.1" viewBox="180 100 900 1030">
<g stroke-width="2.00" fill="none" stroke-linecap="butt">
<path stroke="#898989" vector-effect="non-scaling-stroke" d="
  M 740.68 182.08
  A 43.52 43.52 0.0 0 0 697.16 138.56
  A 43.52 43.52 0.0 0 0 653.64 182.08
  A 43.52 43.52 0.0 0 0 697.16 225.60
  A 43.52 43.52 0.0 0 0 740.68 182.08"
/>
<path stroke="#898989" vector-effect="non-scaling-stroke" d="
  M 651.67 274.89
  A 33.71 33.71 0.0 0 0 617.96 241.18
  A 33.71 33.71 0.0 0 0 584.25 274.89
  A 33.71 33.71 0.0 0 0 617.96 308.60
  A 33.71 33.71 0.0 0 0 651.67 274.89"
/>
<path stroke="#898989" vector-effect="non-scaling-stroke" d="
  M 518.37 429.54
  L 518.37 541.48
  A 4.91 4.82 54.3 0 1 518.14 542.96
  Q 517.46 545.09 516.08 547.57
  Q 510.22 558.13 497.27 582.31
  Q 461.53 649.06 455.89 659.62
  Q 359.29 840.74 324.47 906.71
  C 320.91 913.45 318.27 917.98 316.33 923.93
  C 308.89 946.81 309.85 972.08 320.03 993.97
  Q 325.20 1005.10 331.00 1012.48
  Q 355.01 1043.00 393.33 1049.88
  Q 401.37 1051.32 416.24 1051.19
  Q 427.40 1051.10 837.08 1051.18
  Q 857.87 1051.18 866.31 1049.63
  C 900.10 1043.41 927.45 1020.85 940.04 988.75
  C 947.62 969.41 948.24 946.43 942.25 926.38
  Q 940.25 919.67 930.79 901.97
  Q 871.69 791.42 826.17 705.05
  C 816.26 686.25 806.58 667.47 796.57 648.74
  C 785.20 627.47 759.80 579.97 743.28 548.26
  C 741.97 545.73 740.75 543.78 740.74 541.01
  Q 740.65 504.04 740.70 429.68
  A 1.05 1.04 -9.3 0 1 741.42 428.69
  C 759.39 422.80 773.16 407.60 774.67 388.18
  Q 776.63 363.03 758.23 347.69
  C 751.82 342.34 744.21 339.44 735.97 338.29
  Q 734.87 338.13 717.53 338.14
  Q 646.60 338.18 529.51 338.14
  Q 506.76 338.14 493.48 355.49
  Q 483.84 368.09 484.01 383.85
  C 484.24 405.53 497.48 422.07 517.93 428.93
  A 0.65 0.64 9.5 0 1 518.37 429.54"
/>
<path stroke="#898989" vector-effect="non-scaling-stroke" d="
  M 711.26 412.67
  C 711.26 409.73 712.30 406.13 715.54 405.26
  Q 719.88 404.09 727.10 402.09
  Q 734.89 399.94 738.08 397.61
  C 748.03 390.37 747.53 374.98 736.60 368.87
  Q 734.08 367.46 725.20 367.47
  Q 633.74 367.60 536.17 367.52
  Q 526.58 367.51 523.95 368.45
  C 515.10 371.61 511.96 380.96 514.72 389.52
  C 518.24 400.42 532.99 402.51 542.75 405.00
  Q 547.75 406.27 547.76 411.74
  Q 547.84 511.50 547.72 548.28
  Q 547.71 551.61 546.18 554.42
  Q 528.39 587.02 482.38 673.30
  Q 478.75 680.10 472.22 692.18
  Q 463.64 708.06 421.15 787.93
  Q 372.26 879.80 347.80 926.09
  Q 344.48 932.37 343.25 937.35
  Q 338.48 956.65 344.81 975.34
  C 352.26 997.33 371.53 1014.74 394.69 1019.75
  Q 401.55 1021.23 415.95 1021.22
  Q 550.56 1021.14 846.26 1021.20
  Q 869.27 1021.21 885.60 1010.54
  C 906.22 997.06 917.89 974.71 916.38 949.78
  Q 915.67 937.90 911.63 930.08
  Q 897.18 902.15 855.90 824.96
  Q 851.57 816.87 842.05 798.66
  C 835.32 785.80 828.76 773.54 822.15 761.07
  Q 737.52 601.30 713.07 554.74
  Q 711.32 551.40 711.31 548.87
  Q 711.28 537.50 711.26 412.67"
/>
<path stroke="#898989" vector-effect="non-scaling-stroke" d="
  M 628.80 994.11
  Q 819.38 994.11 836.46 994.13
  Q 851.54 994.15 857.39 992.67
  Q 872.85 988.75 882.99 975.54
  C 891.87 963.96 893.75 948.78 886.92 935.88
  Q 862.21 889.19 726.03 633.48
  Q 722.83 627.48 720.88 626.00
  Q 717.44 623.40 712.25 623.40
  Q 698.80 623.40 628.82 623.40
  Q 558.84 623.40 545.39 623.39
  Q 540.20 623.39 536.76 625.99
  Q 534.81 627.47 531.61 633.47
  Q 395.41 889.17 370.69 935.85
  C 363.86 948.75 365.74 963.93 374.62 975.52
  Q 384.76 988.73 400.22 992.65
  Q 406.07 994.13 421.15 994.11
  Q 438.23 994.10 628.80 994.11"
/>
<path stroke="#898989" vector-effect="non-scaling-stroke" d="
  M 744.82 704.30
  C 739.72 708.70 734.20 714.19 729.93 718.12
  C 681.14 763.03 653.49 789.46 598.86 841.61
  C 591.10 849.02 581.20 857.53 570.57 862.30
  Q 561.86 866.21 553.00 865.26
  C 531.43 862.93 524.10 840.24 525.28 822.00
  Q 526.00 810.77 527.77 803.86
  Q 527.83 803.62 527.74 803.19
  Q 527.69 802.96 527.65 802.51
  A 0.71 0.71 0.0 0 0 526.30 802.26
  C 516.51 822.16 509.62 843.88 507.70 865.50
  C 505.64 888.65 510.90 917.20 535.51 926.41
  C 563.85 937.03 590.74 914.94 608.35 895.59
  C 625.61 876.63 640.81 856.44 655.36 836.12
  C 677.54 805.16 699.32 774.29 720.55 742.09
  Q 728.54 729.96 745.55 705.05
  Q 745.73 704.78 745.46 704.38
  A 0.44 0.43 -37.4 0 0 744.82 704.30"
/>
</g>
<path fill="#ffffff" d="
  M 1254.00 0.00
  L 1254.00 1254.00
  L 0.00 1254.00
  L 0.00 0.00
  L 1254.00 0.00
  Z
  M 740.68 182.08
  A 43.52 43.52 0.0 0 0 697.16 138.56
  A 43.52 43.52 0.0 0 0 653.64 182.08
  A 43.52 43.52 0.0 0 0 697.16 225.60
  A 43.52 43.52 0.0 0 0 740.68 182.08
  Z
  M 651.67 274.89
  A 33.71 33.71 0.0 0 0 617.96 241.18
  A 33.71 33.71 0.0 0 0 584.25 274.89
  A 33.71 33.71 0.0 0 0 617.96 308.60
  A 33.71 33.71 0.0 0 0 651.67 274.89
  Z
  M 518.37 429.54
  L 518.37 541.48
  A 4.91 4.82 54.3 0 1 518.14 542.96
  Q 517.46 545.09 516.08 547.57
  Q 510.22 558.13 497.27 582.31
  Q 461.53 649.06 455.89 659.62
  Q 359.29 840.74 324.47 906.71
  C 320.91 913.45 318.27 917.98 316.33 923.93
  C 308.89 946.81 309.85 972.08 320.03 993.97
  Q 325.20 1005.10 331.00 1012.48
  Q 355.01 1043.00 393.33 1049.88
  Q 401.37 1051.32 416.24 1051.19
  Q 427.40 1051.10 837.08 1051.18
  Q 857.87 1051.18 866.31 1049.63
  C 900.10 1043.41 927.45 1020.85 940.04 988.75
  C 947.62 969.41 948.24 946.43 942.25 926.38
  Q 940.25 919.67 930.79 901.97
  Q 871.69 791.42 826.17 705.05
  C 816.26 686.25 806.58 667.47 796.57 648.74
  C 785.20 627.47 759.80 579.97 743.28 548.26
  C 741.97 545.73 740.75 543.78 740.74 541.01
  Q 740.65 504.04 740.70 429.68
  A 1.05 1.04 -9.3 0 1 741.42 428.69
  C 759.39 422.80 773.16 407.60 774.67 388.18
  Q 776.63 363.03 758.23 347.69
  C 751.82 342.34 744.21 339.44 735.97 338.29
  Q 734.87 338.13 717.53 338.14
  Q 646.60 338.18 529.51 338.14
  Q 506.76 338.14 493.48 355.49
  Q 483.84 368.09 484.01 383.85
  C 484.24 405.53 497.48 422.07 517.93 428.93
  A 0.65 0.64 9.5 0 1 518.37 429.54
  Z"
/>
<circle fill="#121212" cx="697.16" cy="182.08" r="43.52"/>
<circle fill="#121212" cx="617.96" cy="274.89" r="33.71"/>
<path fill="#121212" d="
  M 518.37 429.54
  A 0.65 0.64 9.5 0 0 517.93 428.93
  C 497.48 422.07 484.24 405.53 484.01 383.85
  Q 483.84 368.09 493.48 355.49
  Q 506.76 338.14 529.51 338.14
  Q 646.60 338.18 717.53 338.14
  Q 734.87 338.13 735.97 338.29
  C 744.21 339.44 751.82 342.34 758.23 347.69
  Q 776.63 363.03 774.67 388.18
  C 773.16 407.60 759.39 422.80 741.42 428.69
  A 1.05 1.04 -9.3 0 0 740.70 429.68
  Q 740.65 504.04 740.74 541.01
  C 740.75 543.78 741.97 545.73 743.28 548.26
  C 759.80 579.97 785.20 627.47 796.57 648.74
  C 806.58 667.47 816.26 686.25 826.17 705.05
  Q 871.69 791.42 930.79 901.97
  Q 940.25 919.67 942.25 926.38
  C 948.24 946.43 947.62 969.41 940.04 988.75
  C 927.45 1020.85 900.10 1043.41 866.31 1049.63
  Q 857.87 1051.18 837.08 1051.18
  Q 427.40 1051.10 416.24 1051.19
  Q 401.37 1051.32 393.33 1049.88
  Q 355.01 1043.00 331.00 1012.48
  Q 325.20 1005.10 320.03 993.97
  C 309.85 972.08 308.89 946.81 316.33 923.93
  C 318.27 917.98 320.91 913.45 324.47 906.71
  Q 359.29 840.74 455.89 659.62
  Q 461.53 649.06 497.27 582.31
  Q 510.22 558.13 516.08 547.57
  Q 517.46 545.09 518.14 542.96
  A 4.91 4.82 54.3 0 0 518.37 541.48
  L 518.37 429.54
  Z
  M 711.26 412.67
  C 711.26 409.73 712.30 406.13 715.54 405.26
  Q 719.88 404.09 727.10 402.09
  Q 734.89 399.94 738.08 397.61
  C 748.03 390.37 747.53 374.98 736.60 368.87
  Q 734.08 367.46 725.20 367.47
  Q 633.74 367.60 536.17 367.52
  Q 526.58 367.51 523.95 368.45
  C 515.10 371.61 511.96 380.96 514.72 389.52
  C 518.24 400.42 532.99 402.51 542.75 405.00
  Q 547.75 406.27 547.76 411.74
  Q 547.84 511.50 547.72 548.28
  Q 547.71 551.61 546.18 554.42
  Q 528.39 587.02 482.38 673.30
  Q 478.75 680.10 472.22 692.18
  Q 463.64 708.06 421.15 787.93
  Q 372.26 879.80 347.80 926.09
  Q 344.48 932.37 343.25 937.35
  Q 338.48 956.65 344.81 975.34
  C 352.26 997.33 371.53 1014.74 394.69 1019.75
  Q 401.55 1021.23 415.95 1021.22
  Q 550.56 1021.14 846.26 1021.20
  Q 869.27 1021.21 885.60 1010.54
  C 906.22 997.06 917.89 974.71 916.38 949.78
  Q 915.67 937.90 911.63 930.08
  Q 897.18 902.15 855.90 824.96
  Q 851.57 816.87 842.05 798.66
  C 835.32 785.80 828.76 773.54 822.15 761.07
  Q 737.52 601.30 713.07 554.74
  Q 711.32 551.40 711.31 548.87
  Q 711.28 537.50 711.26 412.67
  Z"
/>
<path fill="#ffffff" d="
  M 715.54 405.26
  C 712.30 406.13 711.26 409.73 711.26 412.67
  Q 711.28 537.50 711.31 548.87
  Q 711.32 551.40 713.07 554.74
  Q 737.52 601.30 822.15 761.07
  C 828.76 773.54 835.32 785.80 842.05 798.66
  Q 851.57 816.87 855.90 824.96
  Q 897.18 902.15 911.63 930.08
  Q 915.67 937.90 916.38 949.78
  C 917.89 974.71 906.22 997.06 885.60 1010.54
  Q 869.27 1021.21 846.26 1021.20
  Q 550.56 1021.14 415.95 1021.22
  Q 401.55 1021.23 394.69 1019.75
  C 371.53 1014.74 352.26 997.33 344.81 975.34
  Q 338.48 956.65 343.25 937.35
  Q 344.48 932.37 347.80 926.09
  Q 372.26 879.80 421.15 787.93
  Q 463.64 708.06 472.22 692.18
  Q 478.75 680.10 482.38 673.30
  Q 528.39 587.02 546.18 554.42
  Q 547.71 551.61 547.72 548.28
  Q 547.84 511.50 547.76 411.74
  Q 547.75 406.27 542.75 405.00
  C 532.99 402.51 518.24 400.42 514.72 389.52
  C 511.96 380.96 515.10 371.61 523.95 368.45
  Q 526.58 367.51 536.17 367.52
  Q 633.74 367.60 725.20 367.47
  Q 734.08 367.46 736.60 368.87
  C 747.53 374.98 748.03 390.37 738.08 397.61
  Q 734.89 399.94 727.10 402.09
  Q 719.88 404.09 715.54 405.26
  Z
  M 628.80 994.11
  Q 819.38 994.11 836.46 994.13
  Q 851.54 994.15 857.39 992.67
  Q 872.85 988.75 882.99 975.54
  C 891.87 963.96 893.75 948.78 886.92 935.88
  Q 862.21 889.19 726.03 633.48
  Q 722.83 627.48 720.88 626.00
  Q 717.44 623.40 712.25 623.40
  Q 698.80 623.40 628.82 623.40
  Q 558.84 623.40 545.39 623.39
  Q 540.20 623.39 536.76 625.99
  Q 534.81 627.47 531.61 633.47
  Q 395.41 889.17 370.69 935.85
  C 363.86 948.75 365.74 963.93 374.62 975.52
  Q 384.76 988.73 400.22 992.65
  Q 406.07 994.13 421.15 994.11
  Q 438.23 994.10 628.80 994.11
  Z"
/>
<path fill="#121212" d="
  M 628.82 623.40
  Q 698.80 623.40 712.25 623.40
  Q 717.44 623.40 720.88 626.00
  Q 722.83 627.48 726.03 633.48
  Q 862.21 889.19 886.92 935.88
  C 893.75 948.78 891.87 963.96 882.99 975.54
  Q 872.85 988.75 857.39 992.67
  Q 851.54 994.15 836.46 994.13
  Q 819.38 994.11 628.80 994.11
  Q 438.23 994.10 421.15 994.11
  Q 406.07 994.13 400.22 992.65
  Q 384.76 988.73 374.62 975.52
  C 365.74 963.93 363.86 948.75 370.69 935.85
  Q 395.41 889.17 531.61 633.47
  Q 534.81 627.47 536.76 625.99
  Q 540.20 623.39 545.39 623.39
  Q 558.84 623.40 628.82 623.40
  Z
  M 744.82 704.30
  C 739.72 708.70 734.20 714.19 729.93 718.12
  C 681.14 763.03 653.49 789.46 598.86 841.61
  C 591.10 849.02 581.20 857.53 570.57 862.30
  Q 561.86 866.21 553.00 865.26
  C 531.43 862.93 524.10 840.24 525.28 822.00
  Q 526.00 810.77 527.77 803.86
  Q 527.83 803.62 527.74 803.19
  Q 527.69 802.96 527.65 802.51
  A 0.71 0.71 0.0 0 0 526.30 802.26
  C 516.51 822.16 509.62 843.88 507.70 865.50
  C 505.64 888.65 510.90 917.20 535.51 926.41
  C 563.85 937.03 590.74 914.94 608.35 895.59
  C 625.61 876.63 640.81 856.44 655.36 836.12
  C 677.54 805.16 699.32 774.29 720.55 742.09
  Q 728.54 729.96 745.55 705.05
  Q 745.73 704.78 745.46 704.38
  A 0.44 0.43 -37.4 0 0 744.82 704.30
  Z"
/>
<path fill="#ffffff" d="
  M 744.82 704.30
  A 0.44 0.43 -37.4 0 1 745.46 704.38
  Q 745.73 704.78 745.55 705.05
  Q 728.54 729.96 720.55 742.09
  C 699.32 774.29 677.54 805.16 655.36 836.12
  C 640.81 856.44 625.61 876.63 608.35 895.59
  C 590.74 914.94 563.85 937.03 535.51 926.41
  C 510.90 917.20 505.64 888.65 507.70 865.50
  C 509.62 843.88 516.51 822.16 526.30 802.26
  A 0.71 0.71 0.0 0 1 527.65 802.51
  Q 527.69 802.96 527.74 803.19
  Q 527.83 803.62 527.77 803.86
  Q 526.00 810.77 525.28 822.00
  C 524.10 840.24 531.43 862.93 553.00 865.26
  Q 561.86 866.21 570.57 862.30
  C 581.20 857.53 591.10 849.02 598.86 841.61
  C 653.49 789.46 681.14 763.03 729.93 718.12
  C 734.20 714.19 739.72 708.70 744.82 704.30
  Z"
/>
</svg>
